<?xml version="1.0" encoding="UTF-8" standalone="no"?>
<svg width="999px" height="171px" viewBox="0 0 999 171" version="1.1" xmlns="http://www.w3.org/2000/svg" xmlns:xlink="http://www.w3.org/1999/xlink">
    <!-- Generator: Sketch 3.7.2 (28276) - http://www.bohemiancoding.com/sketch -->
    <title>googletrendslogo</title>
    <desc>Created with Sketch.</desc>
    <defs></defs>
    <g id="Page-1" stroke="none" stroke-width="1" fill="none" fill-rule="evenodd">
        <g id="googletrendslogo" transform="translate(-2.000000, 0.000000)" fill="#BEBEBE">
            <g id="layer1" transform="translate(0.817120, 0.495590)">
                <g id="g3054" transform="translate(0.682882, 0.317813)">
                    <path d="M127.573961,59.5345153 L67.3307018,59.5345153 L67.3307018,77.2531211 L109.855356,77.2531211 C107.729123,102.059169 86.4667961,113.399077 67.3307018,113.399077 C41.8159096,113.399077 19.8448384,93.5542384 19.8448384,65.9132134 C19.8448384,38.9809327 41.1071653,17.7186058 67.3307018,17.7186058 C87.8842845,17.7186058 99.9329364,30.4760019 99.9329364,30.4760019 L112.690333,17.7186058 C112.690333,17.7186058 96.3892153,0 67.3307019,0 C29.7672577,0 0.70874423,31.8934904 0.70874423,65.9132134 C0.70874423,99.2241922 27.641025,131.826427 68.0394461,131.826427 C103.476658,131.826427 128.99145,107.729123 128.99145,72.2919115 C128.282706,63.7869807 127.573961,59.5345153 127.573961,59.5345153 L127.573961,59.5345153 L127.573961,59.5345153 Z" id="path2998"></path>
                    <path d="M177.186057,46.7771192 C152.380009,46.7771192 134.661404,65.9132134 134.661404,88.5930288 C134.661404,111.272844 151.671265,131.117683 177.186057,131.117683 C200.574617,131.117683 219.710711,113.399077 219.710711,88.5930288 C219.001967,60.9520038 197.030896,46.7771192 177.186057,46.7771192 L177.186057,46.7771192 Z M177.186057,63.0782365 C189.234709,63.0782365 201.283361,73.0006557 201.283361,88.5930288 C201.283361,104.185402 189.943454,114.107821 177.186057,114.107821 C163.719917,114.107821 153.088754,103.476658 153.088754,88.5930288 C153.088754,74.4181442 163.719917,63.0782365 177.186057,63.0782365 L177.186057,63.0782365 Z" id="path3000"></path>
                    <path d="M269.322807,46.7771192 C244.516759,46.7771192 226.798154,65.9132134 226.798154,88.5930288 C226.798154,111.272844 243.808015,131.117683 269.322807,131.117683 C292.711367,131.117683 311.847461,113.399077 311.847461,88.5930288 C311.847461,60.9520038 289.87639,46.7771192 269.322807,46.7771192 L269.322807,46.7771192 Z M269.322807,63.0782365 C281.371459,63.0782365 293.420111,73.0006557 293.420111,88.5930288 C293.420111,104.185402 282.080204,114.107821 269.322807,114.107821 C255.856667,114.107821 245.225504,103.476658 245.225504,88.5930288 C245.225504,74.4181442 255.856667,63.0782365 269.322807,63.0782365 L269.322807,63.0782365 Z" id="path3005"></path>
                    <path d="M360.042069,46.7771192 C337.362253,46.7771192 319.643648,66.6219576 319.643648,89.301773 C319.643648,114.816565 340.19723,131.826427 360.042069,131.826427 C372.090721,131.826427 378.469419,126.865217 383.430628,121.195263 L383.430628,129.700194 C383.430628,144.583823 374.216953,153.088754 361.459557,153.088754 C348.702161,153.088754 342.323463,143.166334 339.488486,138.205125 L323.187369,145.292567 C328.857323,157.341219 340.905975,170.098615 361.459557,170.098615 C384.139373,170.098615 401.149234,155.923731 401.149234,126.156473 L401.149234,49.6120961 L382.721884,49.6120961 L382.721884,56.6995384 C377.760675,50.3208403 369.964488,46.7771192 360.042069,46.7771192 L360.042069,46.7771192 L360.042069,46.7771192 Z M362.168302,63.0782365 C373.508209,63.0782365 384.848117,72.2919115 384.848117,88.5930288 C384.848117,104.894146 373.508209,114.107821 362.168302,114.107821 C350.11965,114.107821 338.779742,104.185402 338.779742,88.5930288 C338.070998,73.0006557 350.11965,63.0782365 362.168302,63.0782365 L362.168302,63.0782365 Z" id="path3007"></path>
                    <path d="M479.819844,46.7771192 C458.557517,46.7771192 440.130167,63.7869807 440.130167,89.301773 C440.130167,116.234054 459.975005,131.826427 481.946076,131.826427 C499.664682,131.826427 511.00459,121.904008 517.383288,113.399077 L502.499659,103.476658 C498.955938,109.146611 492.57724,114.816565 481.946076,114.816565 C469.897424,114.816565 464.227471,108.437867 461.392494,102.059169 L518.092032,78.6706095 L515.257055,71.5831672 C509.587101,58.1170269 496.829705,46.7771192 479.819844,46.7771192 L479.819844,46.7771192 L479.819844,46.7771192 Z M480.528588,63.0782365 C488.324774,63.0782365 493.994728,67.3307019 496.120961,72.2919115 L458.557517,87.8842845 C456.431284,75.8356326 468.479936,63.0782365 480.528588,63.0782365 L480.528588,63.0782365 L480.528588,63.0782365 Z" id="path3011"></path>
                    <polygon id="path3015" points="413.197886 128.99145 431.625236 128.99145 431.625236 4.25246538 413.197886 4.25246538"></polygon>
                </g>
                <g id="flowRoot3076" transform="translate(551.292171, 16.984830)">
                    <path d="M330.924223,114.046335 C321.207471,114.046335 312.65673,110.159634 305.271999,102.386233 C297.887268,94.6128323 294.389238,84.8960811 294.389238,73.6246496 C294.389238,61.9645481 297.887268,52.6364669 305.271999,44.8630659 C312.26806,37.0896649 320.818801,33.2029644 330.924223,33.2029644 C336.754273,33.2029644 341.806984,34.3689746 346.471025,37.0896649 C351.135065,39.4216852 354.633096,42.5310456 356.965116,46.4177461 L357.742456,46.4177461 L356.965116,35.9236548 L356.965116,0.94335025 L371.345908,0.94335025 L371.345908,111.714315 L357.742456,111.714315 L357.742456,101.220223 L356.965116,101.220223 C354.633096,105.106924 351.135065,108.216284 346.471025,110.548304 C342.195654,112.880325 336.754273,114.046335 330.924223,114.046335 L330.924223,114.046335 Z M333.256243,100.831553 C339.863634,100.831553 345.693685,98.4995328 350.357725,93.4468222 C355.021766,88.3941115 357.353786,81.7867207 357.353786,73.2359796 C357.353786,64.6852385 355.021766,58.0778476 350.357725,53.025137 C345.693685,47.9724263 339.863634,45.640406 333.256243,45.640406 C326.648852,45.640406 320.818801,47.9724263 316.154761,53.025137 C311.49072,58.0778476 309.1587,64.6852385 309.1587,72.8473095 C309.1587,81.0093806 311.49072,87.6167714 316.154761,92.6694821 C321.207471,98.4995328 326.648852,100.831553 333.256243,100.831553 L333.256243,100.831553 Z" id="path3928"></path>
                    <polygon id="path3920" points="45.640406 111.714314 31.2596141 111.714314 31.2596141 14.1581319 0.16601015 14.1581319 0.16601015 0.5546802 76.73401 0.5546802 76.73401 14.1581319 45.640406 14.1581319"></polygon>
                    <path d="M94.2241622,111.714315 L79.8433704,111.714315 L79.8433704,35.5349847 L93.4468221,35.5349847 L93.4468221,47.9724263 L94.2241622,47.9724263 C95.7788424,43.6970557 98.4995328,40.5876954 103.163573,37.867005 C107.827614,35.1463147 112.102985,33.9803045 116.378355,33.9803045 C120.653726,33.9803045 124.151756,34.7576446 127.261116,35.9236547 L121.819736,49.1384364 C119.876386,48.3610963 117.544365,47.9724263 114.046335,47.9724263 C108.993624,47.9724263 104.329584,49.9157765 100.442883,54.1911471 C96.5561825,58.4665177 94.6128323,63.5192283 94.6128323,70.1266192 L94.6128323,111.714315 L94.2241622,111.714315 Z" id="path3922"></path>
                    <path d="M165.350781,114.046335 C153.69068,114.046335 144.362599,110.159634 137.366538,102.386233 C130.370477,94.6128323 126.483776,84.8960811 126.483776,73.2359796 C126.483776,61.9645481 129.981807,52.6364669 136.977868,44.4743959 C143.973929,36.3123248 152.91334,32.4256243 163.796101,32.4256243 C175.067533,32.4256243 184.006944,35.9236547 191.003005,43.3083857 C197.610396,50.6931167 201.108426,60.4098679 201.108426,72.8473095 L201.108426,75.5679999 L140.864568,75.5679999 C141.253238,83.3414009 143.973929,89.1714516 148.637969,93.8354922 C153.30201,98.4995328 158.743391,100.442883 165.350781,100.442883 C175.456203,100.442883 182.452264,96.1675125 186.338964,87.2281014 L199.165076,92.6694821 C196.833055,98.4995328 192.557685,103.552243 186.727634,107.438944 C180.508913,112.102985 173.512852,114.046335 165.350781,114.046335 L165.350781,114.046335 L165.350781,114.046335 Z M185.950294,64.2965684 C185.561624,60.0211978 183.618274,55.7458273 180.120243,51.8591268 C176.622213,47.9724263 170.792162,46.0290761 163.796101,46.0290761 C158.35472,46.0290761 154.07935,47.5837562 150.192649,51.0817867 C146.305949,54.5798172 143.585259,58.8551877 142.030578,64.2965684 L185.950294,64.2965684 L185.950294,64.2965684 Z" id="path3924"></path>
                    <path d="M228.704,35.5349847 L228.704,46.0290761 L229.48134,46.0290761 C231.42469,42.5310456 234.92272,39.4216852 239.198091,36.7009949 C243.473461,33.9803045 248.526172,32.8142944 253.578883,32.8142944 C262.906964,32.8142944 270.291695,35.5349847 275.344406,41.3650355 C280.397116,47.1950862 282.729136,54.9684872 282.729136,64.6852385 L282.729136,111.325644 L268.348345,111.325644 L268.348345,67.0172588 C268.348345,53.025137 262.129624,46.0290761 249.692182,46.0290761 C243.862131,46.0290761 238.809421,48.3610964 235.31139,53.025137 C231.42469,57.6891776 229.87001,63.1305583 229.87001,69.3492791 L229.87001,111.714315 L215.489218,111.714315 L215.489218,35.5349847 L228.704,35.5349847 L228.704,35.5349847 Z" id="path3926"></path>
                    <path d="M418.374984,114.046335 C409.824243,114.046335 402.828182,112.102985 397.386801,107.827614 C391.945421,103.552243 387.67005,98.4995328 385.33803,92.280812 L398.164141,86.8394313 C402.050842,96.5561826 409.046903,101.220223 418.763654,101.220223 C423.039025,101.220223 426.925725,100.054213 429.646415,98.1108627 C432.367106,96.1675125 433.921786,93.4468222 433.921786,90.3374617 C433.921786,85.2847511 430.423756,82.1753907 423.427695,80.2320404 L407.880893,76.3453399 C402.828182,75.1793298 398.552811,72.8473095 393.888771,69.349279 C389.22473,65.8512486 387.28138,61.187208 387.28138,55.3571572 C387.28138,48.7497664 390.39074,43.3083857 396.220791,39.0330151 C402.050842,34.7576446 409.435573,32.8142943 417.597644,32.8142943 C424.205035,32.8142943 430.423756,34.3689745 435.476466,37.4783349 C440.917847,40.5876953 444.415877,44.8630659 446.747898,50.6931166 L434.310456,55.7458273 C431.589766,49.1384364 425.759715,45.640406 416.820304,45.640406 C412.544933,45.640406 409.046903,46.4177461 405.937542,48.3610963 C403.216852,50.3044466 401.662172,52.6364669 401.662172,55.3571572 C401.662172,59.6325278 405.160202,62.7418882 411.767593,64.2965684 L426.925725,67.7945988 C433.921786,69.349279 439.363167,72.4586394 442.861197,76.3453399 C446.359228,80.2320404 447.913908,84.896081 447.913908,89.9487917 C447.913908,96.9448526 445.193217,102.386233 439.363167,107.050274 C434.310456,111.714314 427.314395,114.046335 418.374984,114.046335 L418.374984,114.046335 Z" id="path3930"></path>
                </g>
            </g>
        </g>
    </g>
</svg>