<?xml version="1.0" encoding="UTF-8" standalone="no"?>
<svg width="999" height="171" viewBox="0 0 999 171" preserveAspectRatio="xMinYMin meet" version="1.1" xmlns="http://www.w3.org/2000/svg" xmlns:xlink="http://www.w3.org/1999/xlink">
    <defs></defs>
    <g id="Page-1" stroke="none" stroke-width="1" fill="none" fill-rule="evenodd">
        <g id="googletrendslogo" transform="translate(-2.000000, 0.000000)" fill="#FFFFFF">
            <g id="svg3875">
                <g id="layer1" transform="translate(0.817120, 0.495590)">
                    <g id="g3054" transform="translate(0.682882, 0.317813)">
                        <path d="M127.573961,59.5345153 L67.3307018,59.5345153 L67.3307018,77.2531211 L109.855356,77.2531211 C107.729123,102.059169 86.4667961,113.399077 67.3307018,113.399077 C41.8159096,113.399077 19.8448384,93.5542384 19.8448384,65.9132134 C19.8448384,38.9809327 41.1071653,17.7186058 67.3307018,17.7186058 C87.8842845,17.7186058 99.9329364,30.4760019 99.9329364,30.4760019 L112.690333,17.7186058 C112.690333,17.7186058 96.3892153,0 67.3307019,0 C29.7672577,0 0.70874423,31.8934904 0.70874423,65.9132134 C0.70874423,99.2241922 27.641025,131.826427 68.0394461,131.826427 C103.476658,131.826427 128.99145,107.729123 128.99145,72.2919115 C128.282706,63.7869807 127.573961,59.5345153 127.573961,59.5345153 L127.573961,59.5345153 L127.573961,59.5345153 Z" id="path2998"></path>
                        <path d="M177.186057,46.7771192 C152.380009,46.7771192 134.661404,65.9132134 134.661404,88.5930288 C134.661404,111.272844 151.671265,131.117683 177.186057,131.117683 C200.574617,131.117683 219.710711,113.399077 219.710711,88.5930288 C219.001967,60.9520038 197.030896,46.7771192 177.186057,46.7771192 L177.186057,46.7771192 Z M177.186057,63.0782365 C189.234709,63.0782365 201.283361,73.0006557 201.283361,88.5930288 C201.283361,104.185402 189.943454,114.107821 177.186057,114.107821 C163.719917,114.107821 153.088754,103.476658 153.088754,88.5930288 C153.088754,74.4181442 163.719917,63.0782365 177.186057,63.0782365 L177.186057,63.0782365 Z" id="path3000"></path>
                        <path d="M269.322807,46.7771192 C244.516759,46.7771192 226.798154,65.9132134 226.798154,88.5930288 C226.798154,111.272844 243.808015,131.117683 269.322807,131.117683 C292.711367,131.117683 311.847461,113.399077 311.847461,88.5930288 C311.847461,60.9520038 289.87639,46.7771192 269.322807,46.7771192 L269.322807,46.7771192 Z M269.322807,63.0782365 C281.371459,63.0782365 293.420111,73.0006557 293.420111,88.5930288 C293.420111,104.185402 282.080204,114.107821 269.322807,114.107821 C255.856667,114.107821 245.225504,103.476658 245.225504,88.5930288 C245.225504,74.4181442 255.856667,63.0782365 269.322807,63.0782365 L269.322807,63.0782365 Z" id="path3005"></path>
                        <path d="M360.042069,46.7771192 C337.362253,46.7771192 319.643648,66.6219576 319.643648,89.301773 C319.643648,114.816565 340.19723,131.826427 360.042069,131.826427 C372.090721,131.826427 378.469419,126.865217 383.430628,121.195263 L383.430628,129.700194 C383.430628,144.583823 374.216953,153.088754 361.459557,153.088754 C348.702161,153.088754 342.323463,143.166334 339.488486,138.205125 L323.187369,145.292567 C328.857323,157.341219 340.905975,170.098615 361.459557,170.098615 C384.139373,170.098615 401.149234,155.923731 401.149234,126.156473 L401.149234,49.6120961 L382.721884,49.6120961 L382.721884,56.6995384 C377.760675,50.3208403 369.964488,46.7771192 360.042069,46.7771192 L360.042069,46.7771192 L360.042069,46.7771192 Z M362.168302,63.0782365 C373.508209,63.0782365 384.848117,72.2919115 384.848117,88.5930288 C384.848117,104.894146 373.508209,114.107821 362.168302,114.107821 C350.11965,114.107821 338.779742,104.185402 338.779742,88.5930288 C338.070998,73.0006557 350.11965,63.0782365 362.168302,63.0782365 L362.168302,63.0782365 Z" id="path3007"></path>
                        <path d="M479.819844,46.7771192 C458.557517,46.7771192 440.130167,63.7869807 440.130167,89.301773 C440.130167,116.234054 459.975005,131.826427 481.946076,131.826427 C499.664682,131.826427 511.00459,121.904008 517.383288,113.399077 L502.499659,103.476658 C498.955938,109.146611 492.57724,114.816565 481.946076,114.816565 C469.897424,114.816565 464.227471,108.437867 461.392494,102.059169 L518.092032,78.6706095 L515.257055,71.5831672 C509.587101,58.1170269 496.829705,46.7771192 479.819844,46.7771192 L479.819844,46.7771192 L479.819844,46.7771192 Z M480.528588,63.0782365 C488.324774,63.0782365 493.994728,67.3307019 496.120961,72.2919115 L458.557517,87.8842845 C456.431284,75.8356326 468.479936,63.0782365 480.528588,63.0782365 L480.528588,63.0782365 L480.528588,63.0782365 Z" id="path3011"></path>
                        <polygon id="path3015" points="413.197886 128.99145 431.625236 128.99145 431.625236 4.25246538 413.197886 4.25246538"></polygon>
                    </g>
                    <g id="flowRoot3076" transform="translate(550.292171, 15.984830)">
                        <path d="M331.924223,115.046335 C322.207471,115.046335 313.65673,111.159634 306.271999,103.386233 C298.887268,95.6128323 295.389238,85.8960811 295.389238,74.6246496 C295.389238,62.9645481 298.887268,53.6364669 306.271999,45.8630659 C313.26806,38.0896649 321.818801,34.2029644 331.924223,34.2029644 C337.754273,34.2029644 342.806984,35.3689746 347.471025,38.0896649 C352.135065,40.4216852 355.633096,43.5310456 357.965116,47.4177461 L358.742456,47.4177461 L357.965116,36.9236548 L357.965116,1.94335025 L372.345908,1.94335025 L372.345908,112.714315 L358.742456,112.714315 L358.742456,102.220223 L357.965116,102.220223 C355.633096,106.106924 352.135065,109.216284 347.471025,111.548304 C343.195654,113.880325 337.754273,115.046335 331.924223,115.046335 L331.924223,115.046335 Z M334.256243,101.831553 C340.863634,101.831553 346.693685,99.4995328 351.357725,94.4468222 C356.021766,89.3941115 358.353786,82.7867207 358.353786,74.2359796 C358.353786,65.6852385 356.021766,59.0778476 351.357725,54.025137 C346.693685,48.9724263 340.863634,46.640406 334.256243,46.640406 C327.648852,46.640406 321.818801,48.9724263 317.154761,54.025137 C312.49072,59.0778476 310.1587,65.6852385 310.1587,73.8473095 C310.1587,82.0093806 312.49072,88.6167714 317.154761,93.6694821 C322.207471,99.4995328 327.648852,101.831553 334.256243,101.831553 L334.256243,101.831553 Z" id="path3928"></path>
                        <polygon id="path3920" points="46.640406 112.714314 32.2596141 112.714314 32.2596141 15.1581319 1.16601015 15.1581319 1.16601015 1.5546802 77.73401 1.5546802 77.73401 15.1581319 46.640406 15.1581319"></polygon>
                        <path d="M95.2241622,112.714315 L80.8433704,112.714315 L80.8433704,36.5349847 L94.4468221,36.5349847 L94.4468221,48.9724263 L95.2241622,48.9724263 C96.7788424,44.6970557 99.4995328,41.5876954 104.163573,38.867005 C108.827614,36.1463147 113.102985,34.9803045 117.378355,34.9803045 C121.653726,34.9803045 125.151756,35.7576446 128.261116,36.9236547 L122.819736,50.1384364 C120.876386,49.3610963 118.544365,48.9724263 115.046335,48.9724263 C109.993624,48.9724263 105.329584,50.9157765 101.442883,55.1911471 C97.5561825,59.4665177 95.6128323,64.5192283 95.6128323,71.1266192 L95.6128323,112.714315 L95.2241622,112.714315 Z" id="path3922"></path>
                        <path d="M166.350781,115.046335 C154.69068,115.046335 145.362599,111.159634 138.366538,103.386233 C131.370477,95.6128323 127.483776,85.8960811 127.483776,74.2359796 C127.483776,62.9645481 130.981807,53.6364669 137.977868,45.4743959 C144.973929,37.3123248 153.91334,33.4256243 164.796101,33.4256243 C176.067533,33.4256243 185.006944,36.9236547 192.003005,44.3083857 C198.610396,51.6931167 202.108426,61.4098679 202.108426,73.8473095 L202.108426,76.5679999 L141.864568,76.5679999 C142.253238,84.3414009 144.973929,90.1714516 149.637969,94.8354922 C154.30201,99.4995328 159.743391,101.442883 166.350781,101.442883 C176.456203,101.442883 183.452264,97.1675125 187.338964,88.2281014 L200.165076,93.6694821 C197.833055,99.4995328 193.557685,104.552243 187.727634,108.438944 C181.508913,113.102985 174.512852,115.046335 166.350781,115.046335 L166.350781,115.046335 L166.350781,115.046335 Z M186.950294,65.2965684 C186.561624,61.0211978 184.618274,56.7458273 181.120243,52.8591268 C177.622213,48.9724263 171.792162,47.0290761 164.796101,47.0290761 C159.354721,47.0290761 155.07935,48.5837562 151.192649,52.0817867 C147.305949,55.5798172 144.585259,59.8551877 143.030578,65.2965684 L186.950294,65.2965684 L186.950294,65.2965684 Z" id="path3924"></path>
                        <path d="M229.704,36.5349847 L229.704,47.0290761 L230.48134,47.0290761 C232.42469,43.5310456 235.92272,40.4216852 240.198091,37.7009949 C244.473461,34.9803045 249.526172,33.8142944 254.578883,33.8142944 C263.906964,33.8142944 271.291695,36.5349847 276.344406,42.3650355 C281.397116,48.1950862 283.729136,55.9684872 283.729136,65.6852385 L283.729136,112.325644 L269.348345,112.325644 L269.348345,68.0172588 C269.348345,54.025137 263.129624,47.0290761 250.692182,47.0290761 C244.862131,47.0290761 239.809421,49.3610964 236.31139,54.025137 C232.42469,58.6891776 230.87001,64.1305583 230.87001,70.3492791 L230.87001,112.714315 L216.489218,112.714315 L216.489218,36.5349847 L229.704,36.5349847 L229.704,36.5349847 Z" id="path3926"></path>
                        <path d="M419.374984,115.046335 C410.824243,115.046335 403.828182,113.102985 398.386801,108.827614 C392.945421,104.552243 388.67005,99.4995328 386.33803,93.280812 L399.164141,87.8394313 C403.050842,97.5561826 410.046903,102.220223 419.763654,102.220223 C424.039025,102.220223 427.925725,101.054213 430.646415,99.1108627 C433.367106,97.1675125 434.921786,94.4468222 434.921786,91.3374617 C434.921786,86.2847511 431.423756,83.1753907 424.427695,81.2320404 L408.880893,77.3453399 C403.828182,76.1793298 399.552811,73.8473095 394.888771,70.349279 C390.22473,66.8512486 388.28138,62.187208 388.28138,56.3571572 C388.28138,49.7497664 391.39074,44.3083857 397.220791,40.0330151 C403.050842,35.7576446 410.435573,33.8142943 418.597644,33.8142943 C425.205035,33.8142943 431.423756,35.3689745 436.476466,38.4783349 C441.917847,41.5876953 445.415877,45.8630659 447.747898,51.6931166 L435.310456,56.7458273 C432.589766,50.1384364 426.759715,46.640406 417.820304,46.640406 C413.544933,46.640406 410.046903,47.4177461 406.937542,49.3610963 C404.216852,51.3044466 402.662172,53.6364669 402.662172,56.3571572 C402.662172,60.6325278 406.160202,63.7418882 412.767593,65.2965684 L427.925725,68.7945988 C434.921786,70.349279 440.363167,73.4586394 443.861197,77.3453399 C447.359228,81.2320404 448.913908,85.896081 448.913908,90.9487917 C448.913908,97.9448526 446.193217,103.386233 440.363167,108.050274 C435.310456,112.714314 428.314395,115.046335 419.374984,115.046335 L419.374984,115.046335 Z" id="path3930"></path>
                    </g>
                </g>
            </g>
        </g>
    </g>
</svg>