<?xml version="1.0" encoding="UTF-8" standalone="no"?>
<svg width="28px" height="24px" viewBox="0 0 28 24" version="1.1" xmlns="http://www.w3.org/2000/svg" xmlns:xlink="http://www.w3.org/1999/xlink">
    <!-- Generator: Sketch 3.7.2 (28276) - http://www.bohemiancoding.com/sketch -->
    <title>Icon</title>
    <desc>Created with Sketch.</desc>
    <defs></defs>
    <g id="Page-1" stroke="none" stroke-width="1" fill="none" fill-rule="evenodd">
        <g id="iPhone-6-Copy" transform="translate(-158.000000, -166.000000)" fill="#67879B">
            <path d="M181.442589,168.604522 C180.400869,167.481848 178.916516,166.766553 177.273762,166.740634 C174.119651,166.690868 171.56226,169.217303 171.56226,172.383345 C171.56226,172.832683 171.612787,173.270852 171.710222,173.691483 C166.963466,173.399627 162.754968,171.056593 159.938122,167.524746 C159.446493,168.371057 159.164766,169.360209 159.164766,170.419806 C159.164766,172.425714 160.173079,174.205943 161.705593,175.257064 C160.769382,175.217885 159.888708,174.949232 159.118693,174.508503 C159.118137,174.532592 159.118137,174.556688 159.118137,174.581206 C159.118137,177.382464 161.086881,179.732502 163.699671,180.279941 C163.220429,180.408667 162.715855,180.476035 162.194995,180.472761 C161.826969,180.470448 161.469104,180.431761 161.120426,180.362298 C161.847152,182.659614 163.956342,184.335988 166.45569,184.391417 C164.501004,185.929491 162.038403,186.845521 159.36242,186.840288 C158.901413,186.839387 158.446809,186.811149 158,186.756822 C160.527604,188.40079 163.529716,189.357954 166.755094,189.358756 C177.260399,189.361368 183.005307,180.695339 183.005307,173.178616 C183.005307,172.932 182.9996,172.686704 182.988743,172.442592 C184.104653,171.6544 185.072879,170.666182 185.838579,169.537727 C184.814397,169.975362 183.713521,170.266019 182.558359,170.387941 C183.737462,169.700061 184.64319,168.599133 185.069538,167.278922 C183.965877,167.913352 182.743625,168.368321 181.442589,168.604522 Z" id="Icon"></path>
        </g>
    </g>
</svg>