<?xml version="1.0" encoding="UTF-8" standalone="no"?>
<svg width="22px" height="18px" viewBox="0 0 22 18" version="1.1" xmlns="http://www.w3.org/2000/svg" xmlns:xlink="http://www.w3.org/1999/xlink">
    <!-- Generator: Sketch 3.7.2 (28276) - http://www.bohemiancoding.com/sketch -->
    <title>Icon</title>
    <desc>Created with Sketch.</desc>
    <defs></defs>
    <g id="Page-1" stroke="none" stroke-width="1" fill="none" fill-rule="evenodd">
        <g id="iPhone-6-Copy" transform="translate(-160.000000, -168.000000)" fill="#D8D8D8">
            <path d="M178.52598,169.473547 C177.70274,168.586331 176.5297,168.021054 175.23148,168.000571 C172.73888,167.961243 170.71785,169.957809 170.71785,172.459838 C170.71785,172.814936 170.75778,173.161208 170.83478,173.493621 C167.08356,173.262975 163.75771,171.411345 161.53164,168.620232 C161.14312,169.289046 160.92048,170.070743 160.92048,170.908111 C160.92048,172.493321 161.71732,173.900183 162.92842,174.730852 C162.18856,174.69989 161.49259,174.487582 160.88407,174.139287 C160.88363,174.158324 160.88363,174.177366 160.88363,174.196742 C160.88363,176.410493 162.43947,178.267658 164.50428,178.700283 C164.12555,178.802011 163.7268,178.85525 163.31518,178.852662 C163.02434,178.850834 162.74153,178.820262 162.46598,178.765367 C163.04029,180.580867 164.70712,181.905656 166.68228,181.94946 C165.13755,183.164954 163.19143,183.888865 161.07668,183.88473 C160.71236,183.884017 160.3531,183.861702 160,183.818769 C161.99749,185.117948 164.36997,185.874366 166.91889,185.875 C175.22092,185.877064 179.76095,179.028559 179.76095,173.088317 C179.76095,172.893424 179.75644,172.699573 179.74786,172.506659 C180.62973,171.883774 181.39489,171.102815 182,170.211031 C181.19062,170.55688 180.32063,170.786578 179.40774,170.882929 C180.33955,170.339318 181.05532,169.469288 181.39225,168.425964 C180.52006,168.927335 179.55415,169.286884 178.52598,169.473547 Z" id="Icon"></path>
        </g>
    </g>
</svg>